<?xml version="1.0" encoding="utf-8"?>
<!-- Generator: Adobe Illustrator 16.0.0, SVG Export Plug-In . SVG Version: 6.00 Build 0)  -->
<!DOCTYPE svg PUBLIC "-//W3C//DTD SVG 1.1//EN" "http://www.w3.org/Graphics/SVG/1.1/DTD/svg11.dtd">
<svg version="1.1" id="Layer_1" xmlns="http://www.w3.org/2000/svg" xmlns:xlink="http://www.w3.org/1999/xlink" x="0px" y="0px"
	 width="1055.5px" height="616.5px" viewBox="-455.5 0 1055.5 616.5" enable-background="new -455.5 0 1055.5 616.5"
	 xml:space="preserve">
<g>
	<path fill="#D2527F" d="M22.897,82.239l-18.154,59c-1.297,3.241-2.029,4.538-4.539,4.538h-81.693c-2.505,0-3.242-1.297-4.538-4.538
		l-18.154-59l0,0c0-1.879,1.144-3.492,2.772-4.182c0.543-0.229,1.14-0.357,1.766-0.357h49.923V55.009
		c0-5.013,4.063-9.077,9.077-9.077c5.012,0,9.077,4.064,9.077,9.077v22.692h49.922c0.63,0,1.223,0.127,1.764,0.357
		C21.753,78.748,22.897,80.36,22.897,82.239L22.897,82.239z M-36.103,118.547h12.566l2.096-13.615h-14.663V118.547z
		 M-24.234,123.085h-11.869v13.615h9.774L-24.234,123.085z M-71.713,86.778h-21.993l4.191,13.615h19.897L-71.713,86.778z
		 M-68.921,104.932H-88.12l4.188,13.615h17.107L-68.921,104.932z M-82.536,123.085l4.19,13.615h14.314l-2.094-13.615H-82.536z
		 M-45.18,86.778h-17.457l2.095,13.615h15.362V86.778z M-45.18,104.932h-14.664l2.098,13.615h12.566V104.932z M-57.049,123.085
		l2.094,13.615h9.774v-13.615H-57.049z M-36.103,86.778v13.615h15.362l2.094-13.615H-36.103z M-17.252,136.701h14.313l4.188-13.615
		h-16.407L-17.252,136.701z M-14.459,118.547H2.65l4.184-13.615h-19.196L-14.459,118.547z M-9.57,86.778l-2.094,13.615h19.9
		l4.188-13.615H-9.57z"/>
</g>
<text transform="matrix(1 0 0 1 -391.127 140.2354)" fill="#D2527F" font-family="'Helvetica'" font-size="85.5994">Basket</text>
<text transform="matrix(1 0 0 1 77.4111 153.8618)" fill="#D2527F" font-family="'HelveticaNeue-Light'" font-size="95.1449">Basket</text>
<g>
	<path fill="#D2527F" d="M428.041,32.714c-3.953,0-7.28,3.232-7.28,7.208c0,1.677,0.69,3.232,1.694,4.476L400.17,74.662h-7.594
		c-3.768,0-6.904,3.046-6.904,6.775v17.091c0,3.729,3.139,6.835,6.904,6.835h1.256l17.074,52.45
		c0.251,0.687,1.005,1.182,1.758,1.182h12.679h62.335h12.744c0.753,0,1.441-0.497,1.694-1.182l17.076-52.45h1.319
		c3.83,0,6.903-3.105,6.903-6.835V81.437c0-3.729-3.076-6.775-6.903-6.775h-7.535l-22.413-30.325
		c1.005-1.244,1.697-2.734,1.697-4.412c0-3.979-3.327-7.208-7.281-7.208s-7.157,3.229-7.157,7.206c0,3.917,3.201,7.148,7.157,7.148
		c1.004,0,1.946-0.187,2.823-0.56l20.716,28.151H404.564l20.717-28.151c0.816,0.374,1.759,0.56,2.763,0.56
		c3.954,0,7.157-3.232,7.157-7.148C435.199,35.946,431.996,32.714,428.041,32.714L428.041,32.714z M428.041,36.195
		c2.01,0,3.704,1.68,3.704,3.73c0,1.99-1.694,3.605-3.704,3.605c-2.071,0-3.701-1.617-3.701-3.605
		C424.337,37.872,425.97,36.195,428.041,36.195L428.041,36.195z M484.979,36.195c2.073,0,3.642,1.68,3.642,3.73
		c0,1.99-1.568,3.605-3.641,3.605c-2.008,0-3.644-1.617-3.644-3.605C481.336,37.872,482.969,36.195,484.979,36.195L484.979,36.195z
		 M392.574,78.143H520.51c1.884,0,3.325,1.431,3.325,3.294v17.091c0,1.863-1.441,3.356-3.325,3.356H392.574
		c-1.884,0-3.391-1.493-3.391-3.356V81.437C389.184,79.574,390.69,78.143,392.574,78.143L392.574,78.143z M397.534,105.363h117.955
		l-16.387,50.151h-11.427h-62.333h-11.424L397.534,105.363L397.534,105.363z M456.291,112.385c-0.88,0.126-1.57,0.933-1.507,1.803
		v32.005c-0.062,0.934,0.817,1.74,1.76,1.74s1.757-0.807,1.757-1.74v-32.005C458.361,113.195,457.357,112.262,456.291,112.385
		L456.291,112.385z M421.197,112.511c-1.003,0.187-1.629,1.366-1.316,2.299l9.855,31.757c0.252,0.933,1.317,1.553,2.26,1.243
		c0.88-0.311,1.443-1.43,1.131-2.299l-9.794-31.756c-0.251-0.809-1.13-1.368-1.946-1.244
		C421.324,112.511,421.262,112.511,421.197,112.511L421.197,112.511z M491.257,112.511c-0.693,0.061-1.319,0.62-1.508,1.244
		l-9.792,31.756c-0.316,0.871,0.188,1.99,1.131,2.299c0.941,0.31,2.008-0.311,2.259-1.243l9.793-31.757
		C493.516,113.691,492.447,112.385,491.257,112.511L491.257,112.511z"/>
</g>
<text transform="matrix(1 0 0 1 95.4111 424.8613)" fill="#D2527F" font-family="'HelveticaNeue-ThinItalic'" font-size="95.1449">Basket</text>
<g>
	<path fill="#D2527F" d="M426.041,313.714c-3.953,0-7.28,3.232-7.28,7.208c0,1.677,0.69,3.232,1.694,4.476l-22.285,30.263h-7.594
		c-3.768,0-6.904,3.046-6.904,6.775v17.091c0,3.729,3.139,6.835,6.904,6.835h1.256l17.074,52.45
		c0.251,0.688,1.005,1.182,1.758,1.182h12.679h62.335h12.744c0.753,0,1.441-0.496,1.694-1.182l17.076-52.45h1.319
		c3.83,0,6.903-3.105,6.903-6.835v-17.091c0-3.729-3.076-6.775-6.903-6.775h-7.535l-22.413-30.325
		c1.005-1.244,1.697-2.734,1.697-4.412c0-3.979-3.327-7.208-7.281-7.208s-7.157,3.229-7.157,7.206c0,3.917,3.201,7.148,7.157,7.148
		c1.004,0,1.946-0.187,2.823-0.56l20.716,28.151H402.564l20.717-28.151c0.816,0.374,1.759,0.56,2.763,0.56
		c3.954,0,7.157-3.232,7.157-7.148C433.199,316.946,429.996,313.714,426.041,313.714L426.041,313.714z M426.041,317.195
		c2.01,0,3.704,1.68,3.704,3.73c0,1.99-1.694,3.605-3.704,3.605c-2.071,0-3.701-1.617-3.701-3.605
		C422.337,318.872,423.97,317.195,426.041,317.195L426.041,317.195z M482.979,317.195c2.073,0,3.642,1.68,3.642,3.73
		c0,1.99-1.568,3.605-3.641,3.605c-2.008,0-3.644-1.617-3.644-3.605C479.336,318.872,480.969,317.195,482.979,317.195
		L482.979,317.195z M390.574,359.143H518.51c1.884,0,3.325,1.431,3.325,3.294v17.091c0,1.863-1.441,3.356-3.325,3.356H390.574
		c-1.884,0-3.391-1.493-3.391-3.356v-17.091C387.184,360.574,388.69,359.143,390.574,359.143L390.574,359.143z M395.534,386.363
		h117.955l-16.387,50.151h-11.427h-62.333h-11.424L395.534,386.363L395.534,386.363z M454.291,393.385
		c-0.88,0.126-1.57,0.933-1.507,1.803v32.005c-0.062,0.934,0.817,1.74,1.76,1.74s1.757-0.807,1.757-1.74v-32.005
		C456.361,394.195,455.357,393.262,454.291,393.385L454.291,393.385z M419.197,393.511c-1.003,0.187-1.629,1.366-1.316,2.299
		l9.855,31.756c0.252,0.934,1.317,1.553,2.26,1.244c0.88-0.311,1.443-1.43,1.131-2.299l-9.794-31.756
		c-0.251-0.809-1.13-1.368-1.946-1.244C419.324,393.511,419.262,393.511,419.197,393.511L419.197,393.511z M489.257,393.511
		c-0.693,0.061-1.319,0.62-1.508,1.244l-9.792,31.756c-0.316,0.871,0.188,1.99,1.131,2.299c0.941,0.309,2.008-0.311,2.259-1.244
		l9.793-31.756C491.516,394.691,490.447,393.385,489.257,393.511L489.257,393.511z"/>
</g>
<text transform="matrix(1 0 0 1 -416.127 424.8613)" fill="#D2527F" font-family="'Helvetica'" font-size="85.5994">Basket</text>
<g>
	<path fill="#D2527F" d="M-15.867,365.382l-7.128,48.114c-0.029,0.195-0.043,0.393-0.043,0.59c0,3.329-2.708,6.039-6.038,6.039
		h-84.931c-3.33,0-6.038-2.71-6.038-6.039c0-0.197-0.015-0.395-0.043-0.59l-7.367-49.725h47.295
		c-1.474-1.989-2.347-4.448-2.347-7.108c0-0.317,0.016-0.631,0.041-0.942h-49.655c-1.17,0-2.283,0.51-3.047,1.396
		c-0.765,0.887-1.106,2.062-0.935,3.219l8.011,54.072c0.171,7.62,6.423,13.767,14.084,13.767h84.931
		c7.661,0,13.914-6.146,14.084-13.768l7.318-49.396c-0.621,0.235-1.292,0.37-1.995,0.37H-15.867L-15.867,365.382z"/>
	<path fill="#D2527F" d="M-9.669,352.502h-55.084c-1.296-1.799-3.403-2.975-5.789-2.975c-3.941,0-7.136,3.195-7.136,7.137
		c0,3.94,3.195,7.135,7.136,7.135c2.505,0,4.706-1.294,5.979-3.247h54.894c2.223,0,4.025-1.802,4.025-4.025
		C-5.644,354.304-7.446,352.502-9.669,352.502z"/>
	<path fill="#D2527F" d="M-47.104,406.036v-17.711c0-2.224-1.802-4.025-4.025-4.025c-2.223,0-4.025,1.802-4.025,4.025v17.711
		c0,2.224,1.802,4.025,4.025,4.025C-48.905,410.062-47.104,408.26-47.104,406.036z"/>
	<path fill="#D2527F" d="M-66.827,406.036v-17.711c0-2.224-1.802-4.025-4.025-4.025s-4.025,1.802-4.025,4.025v17.711
		c0,2.224,1.802,4.025,4.025,4.025S-66.827,408.26-66.827,406.036z"/>
	<path fill="#D2527F" d="M-94.6,388.325v17.711c0,2.224,1.802,4.025,4.025,4.025c2.223,0,4.025-1.802,4.025-4.025v-17.711
		c0-2.224-1.802-4.025-4.025-4.025C-92.798,384.3-94.6,386.102-94.6,388.325z"/>
</g>
</svg>
